<svg id="instagram" xmlns="http://www.w3.org/2000/svg" width="48" height="48" viewBox="0 0 48 48">
  <path id="Path_15652" data-name="Path 15652" d="M48.327,14.112a17.536,17.536,0,0,0-1.116-5.823,12.3,12.3,0,0,0-7.025-7.023A17.591,17.591,0,0,0,34.363.15C31.793.028,30.977,0,24.459,0s-7.334.028-9.894.141A17.55,17.55,0,0,0,8.74,1.256,11.714,11.714,0,0,0,4.482,4.032,11.818,11.818,0,0,0,1.715,8.28,17.583,17.583,0,0,0,.6,14.1C.477,16.672.449,17.488.449,24S.477,31.337.59,33.9a17.535,17.535,0,0,0,1.116,5.823,12.3,12.3,0,0,0,7.024,7.023,17.593,17.593,0,0,0,5.824,1.116c2.56.113,3.376.141,9.894.141s7.334-.028,9.894-.141a17.541,17.541,0,0,0,5.824-1.116,12.279,12.279,0,0,0,7.025-7.023A17.6,17.6,0,0,0,48.309,33.9c.112-2.56.141-3.376.141-9.893S48.44,16.672,48.327,14.112ZM44,33.71a13.154,13.154,0,0,1-.825,4.454,7.963,7.963,0,0,1-4.558,4.557,13.208,13.208,0,0,1-4.455.825c-2.532.113-3.292.141-9.7.141s-7.175-.028-9.7-.141a13.155,13.155,0,0,1-4.455-.825A7.388,7.388,0,0,1,7.558,40.93a7.462,7.462,0,0,1-1.791-2.757,13.2,13.2,0,0,1-.825-4.454c-.113-2.532-.141-3.291-.141-9.7s.028-7.173.141-9.7a13.147,13.147,0,0,1,.825-4.454,7.3,7.3,0,0,1,1.8-2.757,7.453,7.453,0,0,1,2.757-1.791A13.217,13.217,0,0,1,14.78,4.5c2.532-.112,3.292-.141,9.7-.141s7.175.028,9.7.141a13.161,13.161,0,0,1,4.455.825,7.382,7.382,0,0,1,2.757,1.791,7.461,7.461,0,0,1,1.791,2.757A13.208,13.208,0,0,1,44,14.328c.112,2.532.141,3.291.141,9.7S44.116,31.178,44,33.71Zm0,0" transform="translate(-0.449 0)" fill="#aaa"/>
  <path id="Path_15653" data-name="Path 15653" d="M137.355,124.5a12.4,12.4,0,1,0,12.406,12.4A12.407,12.407,0,0,0,137.355,124.5Zm0,20.446A8.045,8.045,0,1,1,145.4,136.9,8.047,8.047,0,0,1,137.355,144.946Zm0,0" transform="translate(-113.346 -112.897)" fill="#aaa"/>
  <path id="Path_15654" data-name="Path 15654" d="M368.172,91.463A2.861,2.861,0,1,1,365.31,88.6,2.861,2.861,0,0,1,368.172,91.463Zm0,0" transform="translate(-328.47 -80.287)" fill="#aaa"/>
</svg>
