<?xml version="1.0" encoding="utf-8"?>
<!-- Generator: Adobe Illustrator 26.5.0, SVG Export Plug-In . SVG Version: 6.00 Build 0)  -->
<svg version="1.1" xmlns="http://www.w3.org/2000/svg" xmlns:xlink="http://www.w3.org/1999/xlink" x="0px" y="0px"
	 viewBox="0 0 330.9 129.6" style="enable-background:new 0 0 330.9 129.6;" xml:space="preserve">
<g id="BACKGROUND">
</g>
<g id="OBJECTS">
	<g>
		<g>
			<path d="M55.9,62.6c0.2,0,0.4,0,0.6,0.1c0.2,0.1,0.4,0.2,0.6,0.4l3.5,3.6c-1.5,2-3.4,3.5-5.7,4.5c-2.3,1-5,1.5-8.1,1.5
				c-2.9,0-5.4-0.5-7.7-1.5c-2.3-1-4.2-2.3-5.8-4c-1.6-1.7-2.8-3.7-3.6-6.1c-0.8-2.3-1.3-4.9-1.3-7.6c0-2.8,0.5-5.4,1.4-7.7
				c1-2.3,2.3-4.4,4-6.1c1.7-1.7,3.8-3,6.2-4c2.4-0.9,5.1-1.4,8-1.4c1.4,0,2.7,0.1,4,0.4s2.4,0.6,3.5,1c1.1,0.4,2.1,1,3,1.6
				s1.7,1.3,2.4,2l-2.9,3.9c-0.2,0.2-0.4,0.5-0.7,0.7c-0.3,0.2-0.6,0.3-1.1,0.3c-0.3,0-0.6-0.1-0.9-0.2c-0.3-0.1-0.6-0.3-0.9-0.5
				c-0.3-0.2-0.6-0.4-1-0.6c-0.4-0.2-0.8-0.4-1.3-0.6c-0.5-0.2-1.1-0.4-1.8-0.5c-0.7-0.1-1.5-0.2-2.4-0.2c-1.6,0-3,0.3-4.3,0.8
				c-1.3,0.6-2.4,1.4-3.4,2.4c-0.9,1-1.7,2.3-2.2,3.8c-0.5,1.5-0.8,3.1-0.8,5c0,1.9,0.3,3.6,0.8,5.1c0.5,1.5,1.2,2.8,2.1,3.8
				s2,1.8,3.2,2.3s2.5,0.8,3.9,0.8c0.8,0,1.5,0,2.2-0.1c0.7-0.1,1.3-0.2,1.8-0.4c0.6-0.2,1.1-0.4,1.6-0.7s1-0.7,1.5-1.1
				c0.2-0.2,0.4-0.3,0.7-0.4C55.4,62.7,55.6,62.6,55.9,62.6z"/>
			<path d="M105.2,53.6c0,2.7-0.5,5.2-1.4,7.6c-0.9,2.3-2.3,4.4-4,6.1s-3.8,3.1-6.2,4.1c-2.4,1-5.1,1.5-8,1.5c-2.9,0-5.6-0.5-8-1.5
				s-4.5-2.3-6.2-4.1c-1.7-1.7-3-3.8-4-6.1s-1.4-4.9-1.4-7.6c0-2.7,0.5-5.2,1.4-7.6c0.9-2.3,2.3-4.4,4-6.1c1.7-1.7,3.8-3.1,6.2-4
				c2.4-1,5.1-1.5,8-1.5c2.9,0,5.6,0.5,8,1.5c2.4,1,4.5,2.3,6.2,4.1c1.7,1.7,3,3.8,4,6.1C104.8,48.3,105.2,50.9,105.2,53.6z
				 M96.3,53.6c0-1.9-0.2-3.5-0.7-5s-1.2-2.7-2.1-3.8s-2-1.8-3.3-2.4c-1.3-0.5-2.8-0.8-4.5-0.8c-1.7,0-3.2,0.3-4.5,0.8
				c-1.3,0.6-2.4,1.3-3.3,2.4s-1.6,2.3-2.1,3.8c-0.5,1.5-0.7,3.2-0.7,5c0,1.9,0.2,3.6,0.7,5c0.5,1.5,1.2,2.7,2.1,3.8
				c0.9,1,2,1.8,3.3,2.4c1.3,0.5,2.8,0.8,4.5,0.8c1.7,0,3.2-0.3,4.5-0.8c1.3-0.5,2.4-1.3,3.3-2.4c0.9-1,1.6-2.3,2.1-3.8
				C96.1,57.1,96.3,55.4,96.3,53.6z"/>
			<path d="M133.3,57.2c0.3,0.7,0.6,1.4,0.9,2.2c0.3-0.8,0.6-1.5,0.9-2.2c0.3-0.7,0.7-1.4,1-2.1l9.6-19c0.2-0.3,0.3-0.6,0.5-0.8
				c0.2-0.2,0.4-0.3,0.6-0.4c0.2-0.1,0.5-0.1,0.8-0.1s0.6,0,1,0h6.7v37.6h-7.7V50.7c0-1,0.1-2.2,0.2-3.4l-10,19.3
				c-0.3,0.6-0.7,1.1-1.3,1.4c-0.5,0.3-1.1,0.5-1.8,0.5h-1.2c-0.7,0-1.3-0.2-1.8-0.5c-0.5-0.3-0.9-0.8-1.3-1.4l-10-19.3
				c0.1,0.6,0.1,1.2,0.2,1.8c0,0.6,0.1,1.1,0.1,1.6v21.6H113V34.8h6.7c0.4,0,0.7,0,1,0c0.3,0,0.5,0,0.8,0.1c0.2,0.1,0.4,0.2,0.6,0.4
				c0.2,0.2,0.4,0.4,0.5,0.8l9.7,19.1C132.6,55.8,132.9,56.5,133.3,57.2z"/>
			<path d="M173.8,59.8v12.6h-8.7V34.8h13.3c2.6,0,4.9,0.3,6.8,0.9c1.9,0.6,3.5,1.5,4.7,2.6c1.2,1.1,2.1,2.4,2.7,3.9
				c0.6,1.5,0.9,3.1,0.9,4.8c0,1.9-0.3,3.6-0.9,5.2c-0.6,1.6-1.5,2.9-2.8,4c-1.2,1.1-2.8,2-4.7,2.6s-4.2,0.9-6.7,0.9H173.8z
				 M173.8,53.2h4.5c2.3,0,3.9-0.5,4.9-1.6c1-1.1,1.5-2.6,1.5-4.5c0-0.9-0.1-1.6-0.4-2.3c-0.3-0.7-0.7-1.3-1.2-1.8
				c-0.5-0.5-1.2-0.9-2-1.2c-0.8-0.3-1.8-0.4-2.8-0.4h-4.5V53.2z"/>
			<path d="M232.2,72.4h-6.8c-0.8,0-1.4-0.2-1.9-0.5c-0.5-0.4-0.8-0.8-1-1.4l-2.2-6.6h-14.3l-2.2,6.6c-0.2,0.5-0.5,0.9-1,1.3
				c-0.5,0.4-1.1,0.6-1.8,0.6h-6.8l14.5-37.6h8.9L232.2,72.4z M208.1,58h10.3l-3.5-10.3c-0.2-0.7-0.5-1.4-0.8-2.3
				c-0.3-0.9-0.6-1.8-0.9-2.9c-0.3,1-0.6,2-0.9,2.9c-0.3,0.9-0.6,1.7-0.8,2.3L208.1,58z"/>
			<path d="M244.4,34.8c0.3,0,0.5,0.1,0.7,0.2c0.2,0.1,0.4,0.2,0.6,0.4c0.2,0.2,0.4,0.4,0.6,0.7l17.9,22.6c-0.1-0.7-0.1-1.4-0.2-2.1
				c0-0.7-0.1-1.3-0.1-1.9V34.8h7.7v37.6h-4.5c-0.7,0-1.2-0.1-1.7-0.3c-0.5-0.2-0.9-0.6-1.3-1.1l-17.7-22.4c0.1,0.7,0.1,1.3,0.1,1.9
				c0,0.6,0.1,1.2,0.1,1.8v20.1h-7.7V34.8h4.6C243.9,34.8,244.2,34.8,244.4,34.8z"/>
			<path d="M300.2,58.1v14.3h-8.7V58.1l-13.6-23.3h7.7c0.8,0,1.4,0.2,1.8,0.5s0.8,0.8,1.1,1.4l5.3,10.9c0.4,0.9,0.8,1.7,1.2,2.4
				s0.7,1.5,1,2.2c0.3-0.7,0.6-1.5,0.9-2.2c0.4-0.7,0.7-1.5,1.2-2.4l5.3-10.9c0.1-0.2,0.2-0.4,0.4-0.7s0.4-0.4,0.6-0.6
				s0.5-0.3,0.8-0.4c0.3-0.1,0.6-0.2,1-0.2h7.7L300.2,58.1z"/>
		</g>
		<g>
			<g>
				<path d="M56.3,95.7v3.7h-2.3v-3.7l-3.6-6.1h2c0.2,0,0.4,0,0.5,0.1s0.2,0.2,0.3,0.4l1.4,2.9c0.1,0.2,0.2,0.4,0.3,0.6
					c0.1,0.2,0.2,0.4,0.2,0.6c0.1-0.2,0.1-0.4,0.2-0.6c0.1-0.2,0.2-0.4,0.3-0.6l1.4-2.9c0-0.1,0.1-0.1,0.1-0.2
					c0-0.1,0.1-0.1,0.2-0.2c0.1,0,0.1-0.1,0.2-0.1c0.1,0,0.2,0,0.3,0h2L56.3,95.7z"/>
				<path d="M72.8,94.5c0,0.7-0.1,1.4-0.4,2c-0.2,0.6-0.6,1.1-1,1.6c-0.4,0.5-1,0.8-1.6,1.1c-0.6,0.3-1.3,0.4-2.1,0.4
					c-0.8,0-1.5-0.1-2.1-0.4c-0.6-0.3-1.2-0.6-1.6-1.1c-0.4-0.5-0.8-1-1-1.6c-0.2-0.6-0.4-1.3-0.4-2c0-0.7,0.1-1.4,0.4-2
					c0.2-0.6,0.6-1.1,1-1.6c0.4-0.4,1-0.8,1.6-1.1c0.6-0.3,1.3-0.4,2.1-0.4c0.8,0,1.5,0.1,2.1,0.4c0.6,0.3,1.2,0.6,1.6,1.1
					s0.8,1,1,1.6C72.7,93.1,72.8,93.8,72.8,94.5z M70.5,94.5c0-0.5-0.1-0.9-0.2-1.3s-0.3-0.7-0.5-1c-0.2-0.3-0.5-0.5-0.9-0.6
					c-0.3-0.1-0.7-0.2-1.2-0.2c-0.4,0-0.8,0.1-1.2,0.2c-0.3,0.1-0.6,0.3-0.9,0.6c-0.2,0.3-0.4,0.6-0.5,1s-0.2,0.8-0.2,1.3
					c0,0.5,0.1,0.9,0.2,1.3s0.3,0.7,0.5,1c0.2,0.3,0.5,0.5,0.9,0.6c0.3,0.1,0.7,0.2,1.2,0.2c0.4,0,0.8-0.1,1.2-0.2
					c0.3-0.1,0.6-0.3,0.9-0.6c0.2-0.3,0.4-0.6,0.5-1S70.5,95,70.5,94.5z"/>
				<path d="M81,97.6c0.3,0,0.6-0.1,0.8-0.2c0.2-0.1,0.4-0.2,0.6-0.4c0.2-0.2,0.3-0.4,0.4-0.7s0.1-0.6,0.1-0.9v-5.8h2.3v5.8
					c0,0.6-0.1,1.2-0.3,1.7c-0.2,0.5-0.5,0.9-0.8,1.3s-0.8,0.6-1.3,0.8c-0.5,0.2-1.1,0.3-1.8,0.3c-0.7,0-1.2-0.1-1.8-0.3
					c-0.5-0.2-1-0.5-1.3-0.8s-0.6-0.8-0.8-1.3s-0.3-1.1-0.3-1.7v-5.8h2.3v5.8c0,0.3,0,0.7,0.1,0.9s0.2,0.5,0.4,0.7
					c0.2,0.2,0.4,0.3,0.6,0.4C80.5,97.5,80.7,97.6,81,97.6z"/>
				<path d="M92.1,95.8v3.6h-2.3v-9.8H93c0.7,0,1.3,0.1,1.8,0.2c0.5,0.1,0.9,0.3,1.2,0.6c0.3,0.3,0.5,0.6,0.7,0.9s0.2,0.7,0.2,1.2
					c0,0.3,0,0.6-0.1,0.9s-0.2,0.5-0.4,0.8c-0.2,0.2-0.4,0.5-0.6,0.6s-0.5,0.3-0.8,0.5c0.2,0.1,0.3,0.2,0.4,0.3s0.2,0.2,0.3,0.4
					l2.1,3.4h-2.1c-0.4,0-0.7-0.1-0.8-0.4l-1.6-2.8c-0.1-0.1-0.2-0.2-0.3-0.3c-0.1-0.1-0.2-0.1-0.4-0.1H92.1z M92.1,94.2H93
					c0.3,0,0.6,0,0.8-0.1s0.4-0.2,0.5-0.3c0.1-0.1,0.2-0.3,0.3-0.5c0.1-0.2,0.1-0.4,0.1-0.6c0-0.4-0.1-0.8-0.4-1
					c-0.3-0.2-0.7-0.4-1.3-0.4h-0.9V94.2z"/>
				<path d="M114.7,89.6v1.8h-2.8v8h-2.3v-8h-2.8v-1.8H114.7z"/>
				<path d="M126.7,99.4H125c-0.2,0-0.4,0-0.5-0.1c-0.1-0.1-0.2-0.2-0.3-0.4l-0.6-1.7h-3.7l-0.6,1.7c0,0.1-0.1,0.2-0.3,0.3
					c-0.1,0.1-0.3,0.2-0.5,0.2h-1.8l3.8-9.8h2.3L126.7,99.4z M120.4,95.6h2.7l-0.9-2.7c-0.1-0.2-0.1-0.4-0.2-0.6
					c-0.1-0.2-0.2-0.5-0.2-0.8c-0.1,0.3-0.1,0.5-0.2,0.8c-0.1,0.2-0.1,0.4-0.2,0.6L120.4,95.6z"/>
				<path d="M134.8,97.8c0.3,0,0.6,0,0.8-0.1s0.5-0.1,0.7-0.2V96h-1c-0.1,0-0.3,0-0.3-0.1s-0.1-0.2-0.1-0.3v-1.3h3.5v4.1
					c-0.3,0.2-0.5,0.3-0.8,0.5c-0.3,0.1-0.6,0.2-0.9,0.3c-0.3,0.1-0.6,0.1-1,0.2c-0.3,0-0.7,0.1-1.1,0.1c-0.7,0-1.4-0.1-2-0.4
					c-0.6-0.3-1.1-0.6-1.6-1s-0.8-1-1-1.6c-0.3-0.6-0.4-1.3-0.4-2c0-0.7,0.1-1.4,0.4-2c0.2-0.6,0.6-1.1,1-1.6c0.5-0.4,1-0.8,1.6-1
					c0.6-0.2,1.4-0.4,2.1-0.4c0.4,0,0.8,0,1.1,0.1c0.4,0.1,0.7,0.2,1,0.3c0.3,0.1,0.6,0.3,0.8,0.4s0.5,0.3,0.7,0.5l-0.7,1
					c-0.1,0.1-0.1,0.2-0.2,0.2c-0.1,0.1-0.2,0.1-0.3,0.1c-0.1,0-0.3,0-0.4-0.1c-0.2-0.1-0.3-0.2-0.5-0.3c-0.2-0.1-0.3-0.1-0.5-0.2
					c-0.2,0-0.3-0.1-0.5-0.1s-0.4,0-0.6,0c-0.4,0-0.8,0.1-1.1,0.2c-0.3,0.2-0.6,0.4-0.9,0.6s-0.4,0.6-0.6,1
					c-0.1,0.4-0.2,0.8-0.2,1.3c0,0.5,0.1,1,0.2,1.4s0.3,0.7,0.6,1c0.3,0.3,0.6,0.5,0.9,0.6C134,97.7,134.4,97.8,134.8,97.8z"/>
				<path d="M145.2,97.6h3.6v1.8h-5.9v-9.8h2.3V97.6z"/>
				<path d="M155.4,99.4h-2.3v-9.8h2.3V99.4z"/>
				<path d="M161.8,89.6c0.1,0,0.1,0,0.2,0s0.1,0.1,0.2,0.1s0.1,0.1,0.2,0.2l4.7,5.9c0-0.2,0-0.4,0-0.5c0-0.2,0-0.3,0-0.5v-5.2h2
					v9.8h-1.2c-0.2,0-0.3,0-0.4-0.1s-0.2-0.2-0.3-0.3l-4.6-5.8c0,0.2,0,0.3,0,0.5c0,0.2,0,0.3,0,0.5v5.3h-2v-9.8h1.2
					C161.7,89.6,161.7,89.6,161.8,89.6z"/>
				<path d="M179.9,89.6v1.7h-4v2.3h3.1v1.7h-3.1v2.3h4v1.7h-6.3v-9.8H179.9z"/>
				<path d="M193.7,89.5c0.4,0,0.8,0.1,1.1,0.2c0.3,0.1,0.6,0.3,0.8,0.5c0.2,0.2,0.4,0.5,0.5,0.7c0.1,0.3,0.2,0.6,0.2,0.8l-1.3,0.3
					c0,0,0,0-0.1,0s0,0,0,0c-0.2,0-0.3-0.1-0.4-0.3c-0.1-0.2-0.2-0.4-0.4-0.5s-0.3-0.2-0.5-0.2c-0.2,0-0.3,0-0.4,0.1
					s-0.2,0.1-0.3,0.2c-0.1,0.1-0.1,0.2-0.2,0.3c0,0.1-0.1,0.3-0.1,0.4c0,0.1,0,0.2,0,0.3s0.1,0.2,0.1,0.3c0,0.1,0.1,0.2,0.2,0.3
					s0.2,0.2,0.3,0.4l2.4,2.6c0.1-0.3,0.2-0.5,0.3-0.8c0.1-0.3,0.1-0.6,0.2-0.9c0-0.1,0.1-0.2,0.1-0.3c0.1-0.1,0.2-0.1,0.3-0.1h1.3
					c0,0.7-0.1,1.3-0.3,1.8s-0.4,1.1-0.7,1.6l2.1,2.2h-2.1c-0.1,0-0.2,0-0.3,0c-0.1,0-0.2,0-0.2-0.1c-0.1,0-0.1-0.1-0.2-0.1
					c-0.1,0-0.1-0.1-0.2-0.2l-0.4-0.4c-0.4,0.3-0.9,0.5-1.4,0.7c-0.5,0.2-1,0.2-1.6,0.2c-0.4,0-0.8-0.1-1.1-0.2
					c-0.4-0.1-0.7-0.3-1-0.6s-0.5-0.6-0.7-0.9c-0.2-0.4-0.3-0.8-0.3-1.2c0-0.3,0-0.6,0.1-0.8c0.1-0.3,0.2-0.5,0.4-0.7
					c0.2-0.2,0.4-0.4,0.6-0.6c0.2-0.2,0.5-0.3,0.8-0.5c-0.2-0.3-0.4-0.6-0.5-1c-0.1-0.3-0.1-0.6-0.1-0.9c0-0.3,0.1-0.7,0.2-1
					s0.3-0.6,0.6-0.8c0.2-0.2,0.5-0.4,0.9-0.6S193.2,89.5,193.7,89.5z M191.6,96.5c0,0.2,0,0.4,0.1,0.6c0.1,0.2,0.2,0.3,0.3,0.5
					c0.1,0.1,0.3,0.2,0.4,0.3s0.4,0.1,0.6,0.1c0.3,0,0.6,0,0.8-0.1s0.5-0.2,0.7-0.3l-2.3-2.4c-0.2,0.2-0.4,0.4-0.5,0.7
					C191.7,96,191.6,96.2,191.6,96.5z"/>
				<path d="M214,91.6c-0.1,0.1-0.1,0.2-0.2,0.2c-0.1,0.1-0.2,0.1-0.3,0.1c-0.1,0-0.2,0-0.3-0.1c-0.1-0.1-0.3-0.1-0.4-0.2
					c-0.2-0.1-0.3-0.2-0.5-0.2c-0.2-0.1-0.4-0.1-0.7-0.1c-0.4,0-0.7,0.1-1,0.3s-0.3,0.4-0.3,0.7c0,0.2,0.1,0.4,0.2,0.5
					c0.1,0.1,0.3,0.2,0.5,0.3s0.4,0.2,0.7,0.3c0.3,0.1,0.5,0.2,0.8,0.3c0.3,0.1,0.5,0.2,0.8,0.3c0.3,0.1,0.5,0.3,0.7,0.5
					c0.2,0.2,0.4,0.4,0.5,0.7c0.1,0.3,0.2,0.6,0.2,1c0,0.5-0.1,0.9-0.2,1.3c-0.2,0.4-0.4,0.7-0.7,1c-0.3,0.3-0.7,0.5-1.1,0.7
					c-0.4,0.2-0.9,0.3-1.5,0.3c-0.3,0-0.6,0-0.9-0.1c-0.3-0.1-0.6-0.2-0.9-0.3s-0.6-0.2-0.8-0.4c-0.3-0.2-0.5-0.3-0.7-0.5l0.7-1.1
					c0-0.1,0.1-0.1,0.2-0.2c0.1,0,0.2-0.1,0.3-0.1c0.1,0,0.3,0,0.4,0.1c0.1,0.1,0.3,0.2,0.5,0.3c0.2,0.1,0.4,0.2,0.6,0.3
					c0.2,0.1,0.5,0.1,0.8,0.1c0.4,0,0.7-0.1,1-0.3s0.3-0.5,0.3-0.9c0-0.2-0.1-0.4-0.2-0.6c-0.1-0.1-0.3-0.3-0.5-0.4
					c-0.2-0.1-0.4-0.2-0.7-0.2s-0.5-0.2-0.8-0.2c-0.3-0.1-0.5-0.2-0.8-0.3c-0.3-0.1-0.5-0.3-0.7-0.5c-0.2-0.2-0.4-0.5-0.5-0.8
					c-0.1-0.3-0.2-0.7-0.2-1.2c0-0.4,0.1-0.7,0.2-1.1c0.1-0.3,0.4-0.7,0.7-0.9s0.6-0.5,1.1-0.7s0.9-0.2,1.4-0.2c0.3,0,0.6,0,0.9,0.1
					c0.3,0,0.6,0.1,0.8,0.2c0.3,0.1,0.5,0.2,0.7,0.3c0.2,0.1,0.4,0.3,0.6,0.4L214,91.6z"/>
				<path d="M221.2,97.6h3.6v1.8h-5.9v-9.8h2.3V97.6z"/>
				<path d="M238.1,94.5c0,0.7-0.1,1.4-0.4,2c-0.2,0.6-0.6,1.1-1,1.6c-0.4,0.5-1,0.8-1.6,1.1c-0.6,0.3-1.3,0.4-2.1,0.4
					c-0.8,0-1.5-0.1-2.1-0.4c-0.6-0.3-1.2-0.6-1.6-1.1c-0.4-0.5-0.8-1-1-1.6s-0.4-1.3-0.4-2c0-0.7,0.1-1.4,0.4-2s0.6-1.1,1-1.6
					c0.4-0.4,1-0.8,1.6-1.1c0.6-0.3,1.3-0.4,2.1-0.4c0.8,0,1.5,0.1,2.1,0.4c0.6,0.3,1.2,0.6,1.6,1.1c0.4,0.4,0.8,1,1,1.6
					C238,93.1,238.1,93.8,238.1,94.5z M235.8,94.5c0-0.5-0.1-0.9-0.2-1.3c-0.1-0.4-0.3-0.7-0.5-1c-0.2-0.3-0.5-0.5-0.9-0.6
					s-0.7-0.2-1.2-0.2c-0.4,0-0.8,0.1-1.2,0.2s-0.6,0.3-0.9,0.6c-0.2,0.3-0.4,0.6-0.5,1c-0.1,0.4-0.2,0.8-0.2,1.3
					c0,0.5,0.1,0.9,0.2,1.3c0.1,0.4,0.3,0.7,0.5,1c0.2,0.3,0.5,0.5,0.9,0.6c0.3,0.1,0.7,0.2,1.2,0.2c0.4,0,0.8-0.1,1.2-0.2
					c0.3-0.1,0.6-0.3,0.9-0.6c0.2-0.3,0.4-0.6,0.5-1C235.7,95.4,235.8,95,235.8,94.5z"/>
				<path d="M246.9,97.8c0.3,0,0.6,0,0.8-0.1c0.2-0.1,0.5-0.1,0.7-0.2V96h-1c-0.1,0-0.3,0-0.3-0.1s-0.1-0.2-0.1-0.3v-1.3h3.5v4.1
					c-0.3,0.2-0.5,0.3-0.8,0.5c-0.3,0.1-0.6,0.2-0.9,0.3c-0.3,0.1-0.6,0.1-1,0.2c-0.3,0-0.7,0.1-1.1,0.1c-0.7,0-1.4-0.1-2-0.4
					c-0.6-0.3-1.1-0.6-1.6-1s-0.8-1-1-1.6s-0.4-1.3-0.4-2c0-0.7,0.1-1.4,0.4-2c0.2-0.6,0.6-1.1,1-1.6c0.5-0.4,1-0.8,1.6-1
					c0.6-0.2,1.4-0.4,2.1-0.4c0.4,0,0.8,0,1.1,0.1s0.7,0.2,1,0.3c0.3,0.1,0.6,0.3,0.8,0.4s0.5,0.3,0.7,0.5l-0.7,1
					c-0.1,0.1-0.1,0.2-0.2,0.2c-0.1,0.1-0.2,0.1-0.3,0.1c-0.1,0-0.3,0-0.4-0.1c-0.2-0.1-0.3-0.2-0.5-0.3c-0.2-0.1-0.3-0.1-0.5-0.2
					c-0.2,0-0.3-0.1-0.5-0.1c-0.2,0-0.4,0-0.6,0c-0.4,0-0.8,0.1-1.1,0.2c-0.3,0.2-0.6,0.4-0.9,0.6s-0.4,0.6-0.6,1
					c-0.1,0.4-0.2,0.8-0.2,1.3c0,0.5,0.1,1,0.2,1.4c0.1,0.4,0.3,0.7,0.6,1c0.3,0.3,0.6,0.5,0.9,0.6
					C246.1,97.7,246.5,97.8,246.9,97.8z"/>
				<path d="M264.1,99.4h-1.8c-0.2,0-0.4,0-0.5-0.1s-0.2-0.2-0.3-0.4l-0.6-1.7h-3.7l-0.6,1.7c0,0.1-0.1,0.2-0.3,0.3
					c-0.1,0.1-0.3,0.2-0.5,0.2h-1.8l3.8-9.8h2.3L264.1,99.4z M257.8,95.6h2.7l-0.9-2.7c-0.1-0.2-0.1-0.4-0.2-0.6
					c-0.1-0.2-0.2-0.5-0.2-0.8c-0.1,0.3-0.1,0.5-0.2,0.8c-0.1,0.2-0.1,0.4-0.2,0.6L257.8,95.6z"/>
				<path d="M269.4,89.6c0.1,0,0.1,0,0.2,0c0.1,0,0.1,0.1,0.2,0.1c0,0,0.1,0.1,0.2,0.2l4.7,5.9c0-0.2,0-0.4,0-0.5c0-0.2,0-0.3,0-0.5
					v-5.2h2v9.8h-1.2c-0.2,0-0.3,0-0.4-0.1s-0.2-0.2-0.3-0.3l-4.6-5.8c0,0.2,0,0.3,0,0.5c0,0.2,0,0.3,0,0.5v5.3h-2v-9.8h1.2
					C269.2,89.6,269.3,89.6,269.4,89.6z"/>
			</g>
		</g>
	</g>
</g>
</svg>
